<svg xmlns="http://www.w3.org/2000/svg" viewBox="0 0 26.46 26.46"><path fill="#fff" d="M13.23 0c-2.9 0-5.82 1.15-7.7 3.5C4.18 5.07 3.4 7.15 3.4 9.25c-.06 2.7 1.73 5.82 4.18 7.34.78.5 1.05 1.38 1.13 1.7l.07.2.3 3.5c1.27.18 2.62.3 4.16.3s2.9-.12 4.17-.3l.3-3.5c0-.08.03-.14.05-.2.08-.32.35-1.2 1.13-1.7 2.45-1.52 4.24-4.65 4.18-7.34 0-2.1-.78-4.18-2.13-5.77-1.88-2.35-4.8-3.5-7.7-3.5zm0 1.3c3.56 0 6.58 2.4 7.56 5.63h-.44c-.98-3-3.82-5.2-7.14-5.2-4.14 0-7.5 3.37-7.5 7.52 0 2.54 1.28 4.8 3.23 6.14l-.4.1C6.67 14.05 5.3 11.8 5.3 9.25c0-4.4 3.56-7.94 7.92-7.94zm3.85 7.4v11.83h-.42V9.5c-.95 1.48-2.18 2.94-3.24 4.57h-.34c-1.1-1.67-2.2-2.9-3.3-4.56v11.03h-.4V8.7h.4c1.16 1.75 2.3 3.12 3.45 4.88 1-1.5 2.3-3.18 3.43-4.88h.42zm3.5 1.97H21c-.35 1.97-1.55 3.68-3.07 4.85l-.4-.15c1.55-1.1 2.68-2.77 3.05-4.7zM9.1 22.77v.52c1.36.33 2.74.5 4.13.5 1.4 0 2.77-.17 4.13-.5v-.53c-1.37.16-2.75.24-4.13.23-1.38 0-2.76-.07-4.13-.23zm.28 1.16v.5c1.3.33 2.58.5 3.85.48 1.27.02 2.55-.14 3.85-.48v-.5c-1.3.14-2.57.2-3.85.2-1.28 0-2.56-.06-3.85-.2zm.56 1.12v.4c1.32.73 2.36 1 3.3 1 .92 0 1.96-.27 3.28-1v-.4c-1.1.15-2.2.23-3.3.23-1.08 0-2.18-.08-3.28-.23z" /></svg>